<?xml version="1.0" encoding="UTF-8" standalone="no"?> <svg id="Layer_1" data-name="Layer 1" xmlns="http://www.w3.org/2000/svg" viewBox="0 0 128 128"><defs><style>.cls-1{fill:#484644;}.cls-2{fill:rgb(0, 120, 212);}</style></defs><title>v</title><path class="cls-1" d="M114.09137,69.4628H13.90829a7.146,7.146,0,0,0-7.21285,6.68009,7.00392,7.00392,0,0,0,6.99347,7.3203H21.26l.02238.02238.02238,39.10436A2.74006,2.74006,0,0,0,24.04481,125.33h79.91005a2.76492,2.76492,0,0,0,2.76249-2.76694V83.48557a.02507.02507,0,0,1,.02686-.02238h7.56655a7.00121,7.00121,0,0,0,6.99347-7.3203A7.143,7.143,0,0,0,114.09137,69.4628Z"/><path class="cls-2" d="M45.12409,35.00217A67.78026,67.78026,0,0,0,56.98417,37.4126a.3932.3932,0,0,0,.26928-.7111,11.34832,11.34832,0,0,1-4.63726-9.0844V19.67148l2.14968-.127A26.886,26.886,0,0,0,66.639,15.78935l1.11021-.63311,1.11929.615a21.98809,21.98809,0,0,0,4.83447,1.96645l1.68165.459V27.6171a11.22712,11.22712,0,0,1-4.63277,9.08653.393.393,0,0,0,.27316.70823,67.72737,67.72737,0,0,0,11.85172-2.40969,2.85276,2.85276,0,0,0,1.90477-3.64086L78.70433,13.246a14.62609,14.62609,0,0,0-6.426-8.16129,4.26,4.26,0,0,0-2.6088-.25745,10.35314,10.35314,0,0,0-2.57737-1.65118A8.62271,8.62271,0,0,0,64.00131,2.67,15.50923,15.50923,0,0,0,49.29646,13.246L43.21931,31.36131A2.85412,2.85412,0,0,0,45.12409,35.00217Z"/><path class="cls-2" d="M35.20838,64.89171H92.79309a1.2727,1.2727,0,0,0,1.25275-1.5005c-.5326-2.95473-1.69736-9.30878-1.966-10.1146-1.50285-4.49693-5.52273-6.34943-9.619-7.94024q-4.74125-1.84092-9.48247-3.67488L64.00073,50.6368,55.0231,41.66149q-4.74125,1.83744-9.48244,3.67488c-4.09634,1.59081-8.11623,3.44331-9.61908,7.94024-.2686.80582-1.43336,7.15987-1.966,10.1146A1.2727,1.2727,0,0,0,35.20838,64.89171Z"/></svg>